<mxfile host="app.diagrams.net" modified="2021-12-25T16:12:04.059Z" agent="5.0 (Windows NT 10.0; Win64; x64) AppleWebKit/537.36 (KHTML, like Gecko) Chrome/96.0.4664.110 Safari/537.36" etag="w7uqrX531-A1CYtYoywr" version="16.1.0" type="github">
  <diagram id="UQatey4QZ__0ZWbUPBtK" name="Page-1">
    <mxGraphModel dx="1038" dy="579" grid="1" gridSize="10" guides="1" tooltips="1" connect="1" arrows="1" fold="1" page="1" pageScale="1" pageWidth="827" pageHeight="1169" math="0" shadow="0">
      <root>
        <mxCell id="0" />
        <mxCell id="1" parent="0" />
        <mxCell id="pWh6A1dbPIHIRZ9Mf4x2-4" style="edgeStyle=orthogonalEdgeStyle;rounded=0;orthogonalLoop=1;jettySize=auto;html=1;exitX=0.5;exitY=1;exitDx=0;exitDy=0;fontSize=21;" edge="1" parent="1" source="pWh6A1dbPIHIRZ9Mf4x2-2" target="pWh6A1dbPIHIRZ9Mf4x2-5">
          <mxGeometry relative="1" as="geometry">
            <mxPoint x="153" y="120" as="targetPoint" />
          </mxGeometry>
        </mxCell>
        <mxCell id="pWh6A1dbPIHIRZ9Mf4x2-2" value="Початок" style="ellipse;whiteSpace=wrap;html=1;fontSize=16;strokeWidth=1;" vertex="1" parent="1">
          <mxGeometry x="110.00000000000023" y="59.999999999999886" width="85" height="40" as="geometry" />
        </mxCell>
        <mxCell id="pWh6A1dbPIHIRZ9Mf4x2-3" value="ЗАВДАННЯ 1" style="text;html=1;align=center;verticalAlign=middle;resizable=0;points=[];autosize=1;strokeColor=none;fillColor=none;fontSize=21;" vertex="1" parent="1">
          <mxGeometry y="10" width="150" height="30" as="geometry" />
        </mxCell>
        <mxCell id="pWh6A1dbPIHIRZ9Mf4x2-6" style="edgeStyle=orthogonalEdgeStyle;rounded=0;orthogonalLoop=1;jettySize=auto;html=1;exitX=0.5;exitY=1;exitDx=0;exitDy=0;fontSize=20;endArrow=none;endFill=0;" edge="1" parent="1" source="pWh6A1dbPIHIRZ9Mf4x2-5" target="pWh6A1dbPIHIRZ9Mf4x2-7">
          <mxGeometry relative="1" as="geometry">
            <mxPoint x="153" y="180" as="targetPoint" />
          </mxGeometry>
        </mxCell>
        <mxCell id="pWh6A1dbPIHIRZ9Mf4x2-5" value="&lt;font size=&quot;1&quot;&gt;int k, l ,m, n;&lt;/font&gt;" style="shape=parallelogram;perimeter=parallelogramPerimeter;whiteSpace=wrap;html=1;fixedSize=1;fontSize=21;rounded=1;" vertex="1" parent="1">
          <mxGeometry x="101.25" y="130" width="102.5" height="30" as="geometry" />
        </mxCell>
        <mxCell id="pWh6A1dbPIHIRZ9Mf4x2-8" style="edgeStyle=orthogonalEdgeStyle;rounded=0;orthogonalLoop=1;jettySize=auto;html=1;exitX=0;exitY=0.5;exitDx=0;exitDy=0;fontSize=12;endArrow=classic;endFill=0;entryX=0.5;entryY=0;entryDx=0;entryDy=0;" edge="1" parent="1" source="pWh6A1dbPIHIRZ9Mf4x2-7" target="pWh6A1dbPIHIRZ9Mf4x2-21">
          <mxGeometry relative="1" as="geometry">
            <mxPoint x="90.01960784313735" y="220.00980392156868" as="targetPoint" />
          </mxGeometry>
        </mxCell>
        <mxCell id="pWh6A1dbPIHIRZ9Mf4x2-9" style="edgeStyle=orthogonalEdgeStyle;rounded=0;orthogonalLoop=1;jettySize=auto;html=1;exitX=1;exitY=0.5;exitDx=0;exitDy=0;fontSize=12;endArrow=classic;endFill=0;entryX=0.478;entryY=0.042;entryDx=0;entryDy=0;entryPerimeter=0;" edge="1" parent="1" target="pWh6A1dbPIHIRZ9Mf4x2-14">
          <mxGeometry relative="1" as="geometry">
            <mxPoint x="209" y="230" as="targetPoint" />
            <mxPoint x="191.5" y="200" as="sourcePoint" />
            <Array as="points">
              <mxPoint x="208" y="200" />
            </Array>
          </mxGeometry>
        </mxCell>
        <mxCell id="pWh6A1dbPIHIRZ9Mf4x2-7" value="&lt;font style=&quot;font-size: 12px&quot;&gt;k==m&lt;/font&gt;" style="rhombus;whiteSpace=wrap;html=1;rounded=1;fontSize=20;" vertex="1" parent="1">
          <mxGeometry x="112.5" y="180" width="80" height="40" as="geometry" />
        </mxCell>
        <mxCell id="pWh6A1dbPIHIRZ9Mf4x2-10" value="так" style="text;html=1;align=center;verticalAlign=middle;resizable=0;points=[];autosize=1;strokeColor=none;fillColor=none;fontSize=12;" vertex="1" parent="1">
          <mxGeometry x="90" y="180" width="30" height="20" as="geometry" />
        </mxCell>
        <mxCell id="pWh6A1dbPIHIRZ9Mf4x2-11" value="ні" style="text;html=1;align=center;verticalAlign=middle;resizable=0;points=[];autosize=1;strokeColor=none;fillColor=none;fontSize=12;" vertex="1" parent="1">
          <mxGeometry x="185" y="180" width="30" height="20" as="geometry" />
        </mxCell>
        <mxCell id="pWh6A1dbPIHIRZ9Mf4x2-17" style="edgeStyle=orthogonalEdgeStyle;rounded=0;orthogonalLoop=1;jettySize=auto;html=1;exitX=1;exitY=0.5;exitDx=0;exitDy=0;fontSize=12;endArrow=classic;endFill=0;" edge="1" parent="1" source="pWh6A1dbPIHIRZ9Mf4x2-14" target="pWh6A1dbPIHIRZ9Mf4x2-19">
          <mxGeometry relative="1" as="geometry">
            <mxPoint x="280" y="280" as="targetPoint" />
          </mxGeometry>
        </mxCell>
        <mxCell id="pWh6A1dbPIHIRZ9Mf4x2-23" style="edgeStyle=orthogonalEdgeStyle;rounded=0;orthogonalLoop=1;jettySize=auto;html=1;exitX=0;exitY=0.5;exitDx=0;exitDy=0;fontSize=12;endArrow=classic;endFill=0;entryX=1;entryY=0.5;entryDx=0;entryDy=0;" edge="1" parent="1" source="pWh6A1dbPIHIRZ9Mf4x2-14" target="pWh6A1dbPIHIRZ9Mf4x2-21">
          <mxGeometry relative="1" as="geometry">
            <mxPoint x="140" y="280" as="targetPoint" />
            <Array as="points">
              <mxPoint x="112" y="240" />
            </Array>
          </mxGeometry>
        </mxCell>
        <mxCell id="pWh6A1dbPIHIRZ9Mf4x2-14" value="l==n" style="rhombus;whiteSpace=wrap;html=1;rounded=1;fontSize=12;" vertex="1" parent="1">
          <mxGeometry x="170" y="220" width="80" height="40" as="geometry" />
        </mxCell>
        <mxCell id="pWh6A1dbPIHIRZ9Mf4x2-18" value="ні" style="text;html=1;align=center;verticalAlign=middle;resizable=0;points=[];autosize=1;strokeColor=none;fillColor=none;fontSize=12;" vertex="1" parent="1">
          <mxGeometry x="245" y="220" width="30" height="20" as="geometry" />
        </mxCell>
        <mxCell id="pWh6A1dbPIHIRZ9Mf4x2-28" style="edgeStyle=orthogonalEdgeStyle;rounded=0;orthogonalLoop=1;jettySize=auto;html=1;exitX=0.5;exitY=1;exitDx=0;exitDy=0;fontSize=12;endArrow=none;endFill=0;" edge="1" parent="1" source="pWh6A1dbPIHIRZ9Mf4x2-19">
          <mxGeometry relative="1" as="geometry">
            <mxPoint x="290.01960784313735" y="310" as="targetPoint" />
          </mxGeometry>
        </mxCell>
        <mxCell id="pWh6A1dbPIHIRZ9Mf4x2-31" style="edgeStyle=orthogonalEdgeStyle;rounded=0;orthogonalLoop=1;jettySize=auto;html=1;exitX=0.5;exitY=1;exitDx=0;exitDy=0;fontSize=12;endArrow=none;endFill=0;" edge="1" parent="1" source="pWh6A1dbPIHIRZ9Mf4x2-19" target="pWh6A1dbPIHIRZ9Mf4x2-32">
          <mxGeometry relative="1" as="geometry">
            <mxPoint x="160" y="360" as="targetPoint" />
            <Array as="points">
              <mxPoint x="270" y="340" />
              <mxPoint x="160" y="340" />
            </Array>
          </mxGeometry>
        </mxCell>
        <mxCell id="pWh6A1dbPIHIRZ9Mf4x2-19" value="Вивести: &quot;неможна.&lt;br&gt;Можливо через:&lt;br&gt;(k, n)або(m, l)&quot;&lt;br&gt;" style="rounded=1;whiteSpace=wrap;html=1;fontSize=12;" vertex="1" parent="1">
          <mxGeometry x="220" y="260" width="100" height="70" as="geometry" />
        </mxCell>
        <mxCell id="pWh6A1dbPIHIRZ9Mf4x2-30" style="edgeStyle=orthogonalEdgeStyle;rounded=0;orthogonalLoop=1;jettySize=auto;html=1;exitX=0.5;exitY=1;exitDx=0;exitDy=0;fontSize=12;endArrow=none;endFill=0;" edge="1" parent="1" source="pWh6A1dbPIHIRZ9Mf4x2-21">
          <mxGeometry relative="1" as="geometry">
            <mxPoint x="160" y="360" as="targetPoint" />
            <Array as="points">
              <mxPoint x="75" y="340" />
              <mxPoint x="160" y="340" />
            </Array>
          </mxGeometry>
        </mxCell>
        <mxCell id="pWh6A1dbPIHIRZ9Mf4x2-21" value="Вивести: &quot;можна&quot;" style="rounded=1;whiteSpace=wrap;html=1;fontSize=12;" vertex="1" parent="1">
          <mxGeometry x="45" y="220" width="60" height="40" as="geometry" />
        </mxCell>
        <mxCell id="pWh6A1dbPIHIRZ9Mf4x2-24" value="так" style="text;html=1;align=center;verticalAlign=middle;resizable=0;points=[];autosize=1;strokeColor=none;fillColor=none;fontSize=12;" vertex="1" parent="1">
          <mxGeometry x="150" y="220" width="30" height="20" as="geometry" />
        </mxCell>
        <mxCell id="pWh6A1dbPIHIRZ9Mf4x2-32" value="кінець" style="ellipse;whiteSpace=wrap;html=1;rounded=1;fontSize=12;" vertex="1" parent="1">
          <mxGeometry x="100" y="350" width="120" height="30" as="geometry" />
        </mxCell>
      </root>
    </mxGraphModel>
  </diagram>
</mxfile>
